<svg xmlns="http://www.w3.org/2000/svg"  width="18px" height="18px" class="icon icon-cmcompare not-added" viewBox="0 0 512 512" data-name="Layer 1" viewBox="0 0 512 640" x="0px" y="0px">
<g>
<path d="M470.9,315.19H41.1a33.12,33.12,0,0,1,0-66.23H470.9a33.12,33.12,0,0,1,0,66.23ZM41.1,264.73a17.35,17.35,0,0,0,0,34.7H470.9a17.35,17.35,0,0,0,0-34.7Z"/>
<path d="M109.4,264.73c-26.73,0-51.93-8.13-71-22.9C18.81,226.61,8,206.19,8,184.33a7.88,7.88,0,0,1,7.88-7.89h187a7.88,7.88,0,0,1,7.88,7.89C210.8,228.66,165.31,264.73,109.4,264.73Zm-85-72.52c5.17,31.93,41.32,56.75,85,56.75s79.83-24.82,85-56.75Z"/>
<path d="M402.6,264.73c-55.91,0-101.4-36.07-101.4-80.4a7.88,7.88,0,0,1,7.88-7.89h187a7.88,7.88,0,0,1,7.88,7.89c0,21.86-10.81,42.28-30.44,57.5C454.53,256.6,429.33,264.73,402.6,264.73Zm-85-72.52c5.17,31.93,41.32,56.75,85,56.75s79.83-24.82,85-56.75Z"/><path d="M318.36,423.2H193.64a7.89,7.89,0,0,1-6.83-11.83l62.36-108a7.89,7.89,0,0,1,13.66,0l62.36,108a7.89,7.89,0,0,1-6.83,11.83ZM207.29,407.43h97.42L256,323.07Z"/>
<path d="M182.7,192.21a7.88,7.88,0,0,1-7.88-7.88V104.57H44v79.76a7.88,7.88,0,1,1-15.76,0V96.69A7.88,7.88,0,0,1,36.1,88.8H182.7a7.88,7.88,0,0,1,7.88,7.89v87.64A7.88,7.88,0,0,1,182.7,192.21Z"/><path d="M475.9,192.21a7.88,7.88,0,0,1-7.88-7.88V104.57H337.18v79.76a7.88,7.88,0,0,1-15.76,0V96.69a7.88,7.88,0,0,1,7.88-7.89H475.9a7.88,7.88,0,0,1,7.88,7.89v87.64A7.88,7.88,0,0,1,475.9,192.21Z"/><path d="M127.78,144.25H91a7.89,7.89,0,0,1-7.89-7.89V96.69a7.89,7.89,0,1,1,15.77,0v31.79h21V96.69a7.88,7.88,0,1,1,15.76,0v39.67A7.88,7.88,0,0,1,127.78,144.25Z"/>
<path d="M421,144.25H384.22a7.88,7.88,0,0,1-7.88-7.89V96.69a7.88,7.88,0,1,1,15.76,0v31.79h21V96.69a7.89,7.89,0,1,1,15.77,0v39.67A7.89,7.89,0,0,1,421,144.25Z"/>

</g>

</svg>

